<!-- Generated by IcoMoon.io -->
<svg version="1.1" xmlns="http://www.w3.org/2000/svg" width="576" height="576" viewBox="0 0 576 576">
<title>x</title>
<g id="icomoon-ignore">
</g>
<path fill="#000" d="M288 32c-141.391 0-256 114.609-256 256s114.609 256 256 256 256-114.609 256-256-114.609-256-256-256zM288 480c-105.875 0-192-86.125-192-192s86.125-192 192-192 192 86.125 192 192-86.125 192-192 192z"></path>
<path fill="#000" d="M384.312 256h-64.312v-64.312c0-17.5-14.188-31.688-31.688-31.688h-0.625c-17.5 0-31.688 14.188-31.688 31.688v64.312h-64.312c-17.5 0-31.688 14.188-31.688 31.688v0.625c0 17.5 14.188 31.688 31.688 31.688h64.313v64.312c0 17.5 14.188 31.688 31.688 31.688h0.625c17.5 0 31.688-14.188 31.688-31.688v-64.313h64.312c17.5 0 31.688-14.188 31.688-31.688v-0.625c-0.001-17.499-14.189-31.687-31.689-31.687z"></path>
</svg>
